<?xml version="1.0" encoding="iso-8859-1"?>
<!-- Generator: Adobe Illustrator 19.0.0, SVG Export Plug-In . SVG Version: 6.00 Build 0)  -->
<svg version="1.1" id="Layer_1" xmlns="http://www.w3.org/2000/svg" xmlns:xlink="http://www.w3.org/1999/xlink" x="0px" y="0px"
	 viewBox="0 0 503.607 503.607" style="enable-background:new 0 0 503.607 503.607;" xml:space="preserve">
<g>
	<g>
		<rect x="50.361" y="184.656" width="67.148" height="16.787"/>
	</g>
</g>
<g>
	<g>
		<rect x="50.361" y="251.803" width="67.148" height="16.787"/>
	</g>
</g>
<g>
	<g>
		<path d="M302.164,276.984c-5.036,0-8.393,3.357-8.393,8.393c0,23.502-7.554,33.574-14.269,41.967
			c-3.357,5.036-7.554,10.072-9.233,16.787h-1.679c-0.839-11.751,0.839-19.305,2.518-26.02c2.518-10.911,4.197-20.144-2.518-36.092
			c-1.679-4.197-6.715-5.875-10.911-4.197c-4.197,1.679-5.875,6.715-4.197,10.911c5.036,10.911,3.357,16.787,1.679,26.02
			c-1.679,7.554-3.357,16.787-2.518,29.377h-3.357c-5.036-7.554-5.036-14.269-4.197-22.662c0.839-10.911,0.839-24.341-10.072-41.128
			c-2.518-4.197-7.554-5.036-11.751-2.518c-4.197,2.518-5.036,7.554-2.518,11.751c7.554,12.59,7.554,20.984,6.715,31.056
			c-0.839,10.072-0.839,20.984,8.393,34.413v47.843c0,27.698-22.662,50.361-50.361,50.361h-25.18
			c-27.698,0-50.361-22.662-50.361-50.361c9.233,0,16.787-7.554,16.787-16.787v-16.787c5.036,0,8.393-3.357,8.393-8.393
			s-3.357-8.393-8.393-8.393v-18.466c20.144-7.554,41.967-40.289,41.967-73.862V100.721c0-9.233-7.554-16.787-16.787-16.787h-16.787
			V16.787C135.134,7.554,127.58,0,118.348,0H50.361c-9.233,0-16.787,7.554-16.787,16.787v67.148H16.787
			C7.554,83.934,0,91.489,0,100.721v159.475c0,33.574,21.823,66.308,41.967,73.862v18.466c-5.036,0-8.393,3.357-8.393,8.393
			s3.357,8.393,8.393,8.393v16.787c0,9.233,7.554,16.787,16.787,16.787c0,55.397,45.325,100.721,100.721,100.721h25.18
			c55.397,0,100.721-45.325,100.721-100.721v-50.361c0-5.036,2.518-8.393,7.554-14.269c7.554-10.072,17.626-23.502,17.626-52.879
			C310.557,281.18,307.2,276.984,302.164,276.984z M50.361,16.787h67.148v67.148H50.361V16.787z M33.574,176.262
			c0-5.036,3.357-8.393,8.393-8.393h83.934c5.036,0,8.393,3.357,8.393,8.393v33.574c0,5.036-3.357,8.393-8.393,8.393H41.967
			c-5.036,0-8.393-3.357-8.393-8.393V176.262z M41.967,285.377c-5.036,0-8.393-3.357-8.393-8.393V243.41
			c0-5.036,3.357-8.393,8.393-8.393h83.934c5.036,0,8.393,3.357,8.393,8.393v33.574c0,5.036-3.357,8.393-8.393,8.393H41.967z
			 M109.115,386.098h-8.393H67.148h-8.393v-16.787h50.361V386.098z M109.115,352.525H58.754v-16.787h50.361V352.525z"/>
	</g>
</g>
<g>
	<g>
		<path d="M402.885,0h-58.754C288.734,0,243.41,45.325,243.41,100.721v75.541c0,5.036-2.518,8.393-7.554,14.269
			c-7.554,10.072-17.626,23.502-17.626,52.879c0,5.036,3.357,8.393,8.393,8.393c5.036,0,8.393-3.357,8.393-8.393
			c0-23.502,7.554-33.574,14.269-41.967c3.357-5.036,7.554-10.072,9.233-16.787h1.679c0.839,11.751-0.839,19.305-2.518,26.02
			c-2.518,10.911-4.197,20.144,2.518,36.092c1.679,3.357,4.197,5.036,7.554,5.036c0.839,0,2.518,0,3.357-0.839
			c4.197-1.679,5.875-6.715,4.197-10.911c-5.036-10.911-3.357-16.787-1.679-26.02c1.679-7.554,3.357-16.787,2.518-29.377h3.357
			c5.036,7.554,5.036,14.269,4.197,22.662c-0.839,10.911-0.839,23.502,10.072,40.289c1.679,2.518,4.197,4.197,6.715,4.197
			c1.679,0,3.357,0,4.197-1.679c4.197-2.518,5.036-7.554,2.518-11.751c-5.875-11.751-5.875-20.144-5.036-30.216
			c0.839-10.072,0.839-20.984-8.393-34.413v-73.023c0-27.698,22.662-50.361,50.361-50.361h58.754
			c27.698,0,50.361,22.662,50.361,50.361v394.492c0,5.036,3.357,8.393,8.393,8.393h33.574c5.036,0,8.393-3.357,8.393-8.393V100.721
			C503.607,45.325,458.282,0,402.885,0z"/>
	</g>
</g>
<g>
</g>
<g>
</g>
<g>
</g>
<g>
</g>
<g>
</g>
<g>
</g>
<g>
</g>
<g>
</g>
<g>
</g>
<g>
</g>
<g>
</g>
<g>
</g>
<g>
</g>
<g>
</g>
<g>
</g>
</svg>
